<svg height="512pt" viewBox="0 0 512 512" width="512pt" xmlns="http://www.w3.org/2000/svg"><path d="m512 256c0 141.386719-114.613281 256-256 256s-256-114.613281-256-256 114.613281-256 256-256 256 114.613281 256 256zm0 0" fill="#ffd400"/><path d="m512 256c0-26.542969-4.039062-52.144531-11.539062-76.21875l-67.46875-67.46875-353.984376 287.375 100.773438 100.773438c24.074219 7.5 49.675781 11.539062 76.21875 11.539062 141.386719 0 256-114.613281 256-256zm0 0" fill="#fdba12"/><path d="m89.507812 122.8125h332.984376v266.375h-332.984376zm0 0" fill="#f92814"/><path d="m255.644531 122.8125h166.847657v266.375h-166.847657zm0 0" fill="#db0404"/><path d="m432.992188 399.6875h-353.984376v-287.375h353.984376zm-332.984376-21h311.984376v-245.375h-311.984376zm0 0" fill="#fff"/><path d="m432.992188 112.3125h-177.347657v21h156.347657v245.375h-156.347657v21h177.347657zm0 0" fill="#dce1eb"/><path d="m130.5625 316.332031h250.488281v30h-250.488281zm0 0" fill="#414952"/><path d="m255.644531 316.332031h125.40625v30h-125.40625zm0 0" fill="#333940"/><path d="m317.332031 301.332031h30v60h-30zm0 0" fill="#333940"/><path d="m223 168.773438 91.332031 62.226562-91.332031 62.226562zm0 0" fill="#fff"/><path d="m314.332031 231h-91.332031v62.226562zm0 0" fill="#dce1eb"/></svg>