<svg height="512pt" viewBox="0 0 512 512" width="512pt" xmlns="http://www.w3.org/2000/svg"><path d="m512 256c0 141.386719-114.613281 256-256 256s-256-114.613281-256-256 114.613281-256 256-256 256 114.613281 256 256zm0 0" fill="#4a7aff"/><path d="m511.214844 276.144531-134.320313-133.433593-73.519531-32.210938-87.480469-11.792969-99.410156 89.699219-3.523437 191.816406 131.503906 131.503906c3.824218.171876 7.667968.273438 11.535156.273438 53.609375 0 103.359375-16.488281 144.480469-44.65625l1.808593-1.8125.328126.328125c60.96875-42.671875 102.488281-111.21875 108.597656-189.714844zm0 0" fill="#0053bf"/><path d="m256 90.242188c-91.398438 0-165.757812 74.359374-165.757812 165.757812s74.359374 165.757812 165.757812 165.757812 165.757812-74.359374 165.757812-165.757812-74.359374-165.757812-165.757812-165.757812zm88.898438 154.257812c-.453126-12.84375-1.65625-25.242188-3.539063-37.054688 6.640625 2.226563 12.949219 4.710938 18.808594 7.480469 18.066406 8.523438 30.449219 18.894531 35.71875 29.574219zm-23.035157 0h-54.363281v-49.574219c17.257812.617188 33.878906 2.609375 49.285156 5.878907 2.785156 13.804687 4.5 28.503906 5.078125 43.695312zm-54.363281-72.605469v-56.234375c12.027344 5.019532 23.671875 17.6875 33.101562 36.433594 3.71875 7.390625 6.972657 15.472656 9.769532 24.078125-13.707032-2.335937-28.105469-3.78125-42.871094-4.277344zm-23-56.234375v56.234375c-14.765625.496094-29.164062 1.941407-42.871094 4.273438 2.796875-8.605469 6.050782-16.6875 9.769532-24.078125 9.429687-18.742188 21.074218-31.410156 33.101562-36.429688zm0 79.265625v49.574219h-54.363281c.578125-15.191406 2.292969-29.890625 5.078125-43.695312 15.40625-3.269532 32.027344-5.261719 49.285156-5.878907zm-77.398438 49.574219h-50.992187c5.273437-10.679688 17.65625-21.050781 35.71875-29.574219 5.863281-2.769531 12.167969-5.253906 18.808594-7.480469-1.875 11.808594-3.082031 24.210938-3.535157 37.054688zm0 23c.453126 12.84375 1.65625 25.246094 3.539063 37.054688-6.640625-2.226563-12.949219-4.710938-18.808594-7.476563-18.066406-8.527344-30.449219-18.898437-35.722656-29.578125zm23.035157 0h54.363281v49.574219c-17.257812-.613281-33.878906-2.609375-49.285156-5.875-2.785156-13.808594-4.5-28.507813-5.078125-43.699219zm54.363281 72.605469v56.234375c-12.027344-5.019532-23.671875-17.6875-33.101562-36.433594-3.71875-7.390625-6.972657-15.472656-9.769532-24.078125 13.707032 2.335937 28.105469 3.78125 42.871094 4.277344zm23 56.234375v-56.234375c14.765625-.496094 29.164062-1.941407 42.871094-4.273438-2.796875 8.605469-6.050782 16.6875-9.769532 24.078125-9.429687 18.742188-21.074218 31.410156-33.101562 36.429688zm0-79.265625v-49.574219h54.363281c-.578125 15.191406-2.292969 29.890625-5.078125 43.699219-15.40625 3.265625-32.027344 5.257812-49.285156 5.875zm77.398438-49.574219h50.992187c-5.273437 10.679688-17.65625 21.050781-35.722656 29.578125-5.859375 2.765625-12.167969 5.25-18.808594 7.476563 1.882813-11.8125 3.085937-24.210938 3.539063-37.054688zm44.464843-62.414062c-5.746093-3.914063-12.214843-7.582032-19.378906-10.964844-10.308594-4.863282-21.738281-8.988282-33.996094-12.328125-5.996093-22.792969-14.710937-42.480469-25.410156-57.699219 36.105469 14.996094 64.769531 44.394531 78.785156 80.992188zm-187.941406-80.988282c-10.699219 15.214844-19.414063 34.902344-25.414063 57.695313-12.253906 3.339843-23.683593 7.464843-33.992187 12.332031-7.164063 3.378906-13.632813 7.050781-19.382813 10.960938 14.019532-36.597657 42.683594-65.996094 78.789063-80.988282zm-78.785156 182.816406c5.746093 3.914063 12.214843 7.582032 19.378906 10.964844 10.308594 4.863282 21.738281 8.988282 33.996094 12.328125 5.996093 22.792969 14.710937 42.480469 25.410156 57.699219-36.105469-14.996094-64.769531-44.394531-78.785156-80.992188zm187.941406 80.988282c10.699219-15.214844 19.414063-34.902344 25.414063-57.695313 12.253906-3.339843 23.683593-7.464843 33.992187-12.332031 7.164063-3.378906 13.632813-7.050781 19.382813-10.960938-14.019532 36.597657-42.683594 65.996094-78.789063 80.988282zm0 0" fill="#fff"/><path d="m421.757812 256c0-91.285156-74.171874-165.566406-165.414062-165.753906v331.507812c91.242188-.1875 165.414062-74.46875 165.414062-165.753906zm-25.867187 11.5c-5.273437 10.679688-17.65625 21.050781-35.722656 29.578125-5.859375 2.765625-12.167969 5.25-18.808594 7.476563 1.882813-11.808594 3.085937-24.210938 3.539063-37.054688zm-50.992187-23c-.453126-12.84375-1.65625-25.242188-3.539063-37.054688 6.640625 2.226563 12.949219 4.710938 18.808594 7.480469 18.066406 8.523438 30.449219 18.894531 35.71875 29.574219zm44.464843-39.414062c-5.746093-3.914063-12.214843-7.582032-19.378906-10.964844-10.308594-4.863282-21.738281-8.988282-33.996094-12.328125-5.996093-22.792969-14.710937-42.480469-25.410156-57.699219 36.105469 14.996094 64.769531 44.394531 78.785156 80.992188zm-121.863281-89.425782c12.027344 5.019532 23.671875 17.683594 33.101562 36.429688 3.71875 7.394531 6.972657 15.476562 9.769532 24.078125-13.707032-2.332031-28.105469-3.777344-42.871094-4.273438zm0 79.265625c17.257812.617188 33.878906 2.609375 49.285156 5.878907 2.785156 13.804687 4.5 28.503906 5.078125 43.695312h-54.363281zm0 72.574219h54.363281c-.578125 15.191406-2.292969 29.890625-5.078125 43.699219-15.40625 3.265625-32.027344 5.261719-49.285156 5.875zm33.101562 92.410156c-9.429687 18.746094-21.070312 31.410156-33.101562 36.429688v-56.234375c14.765625-.496094 29.164062-1.941407 42.871094-4.273438-2.796875 8.601563-6.050782 16.683594-9.769532 24.078125zm9.976563 27.992188c10.699219-15.214844 19.414063-34.902344 25.414063-57.695313 12.253906-3.339843 23.683593-7.464843 33.992187-12.332031 7.164063-3.378906 13.632813-7.050781 19.382813-10.960938-14.019532 36.597657-42.683594 65.996094-78.789063 80.988282zm0 0" fill="#dce1eb"/><path d="m225.804688 125.367188c0 22.574218-18.296876 40.871093-40.871094 40.871093-22.570313 0-40.871094-18.296875-40.871094-40.871093 0-22.570313 18.300781-40.867188 40.871094-40.867188 22.574218 0 40.871094 18.296875 40.871094 40.867188zm0 0" fill="#f92814"/><path d="m184.933594 84.5c-.207032 0-.410156.011719-.617188.015625v81.707031c.207032.003906.410156.015625.617188.015625 22.574218 0 40.871094-18.296875 40.871094-40.867187 0-22.574219-18.300782-40.871094-40.871094-40.871094zm0 0" fill="#e50707"/><path d="m435 312.859375c0 22.574219-18.296875 40.871094-40.871094 40.871094-22.570312 0-40.867187-18.296875-40.867187-40.871094 0-22.570313 18.296875-40.871094 40.867187-40.871094 22.574219 0 40.871094 18.300781 40.871094 40.871094zm0 0" fill="#ffd400"/><path d="m394.128906 271.988281c-.242187 0-.480468.015625-.722656.019531v81.703126c.242188.003906.480469.019531.722656.019531 22.574219 0 40.871094-18.300781 40.871094-40.871094 0-22.574219-18.296875-40.871094-40.871094-40.871094zm0 0" fill="#fdba12"/><path d="m184.933594 353.730469c0 22.570312-18.296875 40.871093-40.871094 40.871093-22.570312 0-40.867188-18.300781-40.867188-40.871093 0-22.574219 18.296876-40.871094 40.867188-40.871094 22.574219 0 40.871094 18.296875 40.871094 40.871094zm0 0" fill="#414952"/><path d="m144.0625 312.859375c-.570312 0-1.136719.019531-1.707031.042969v81.652344c.570312.023437 1.136719.042968 1.707031.042968 22.574219 0 40.871094-18.296875 40.871094-40.867187 0-22.574219-18.296875-40.871094-40.871094-40.871094zm0 0" fill="#333940"/></svg>